<?xml version="1.0" encoding="utf-8"?>
<!-- Generator: Adobe Illustrator 24.2.1, SVG Export Plug-In . SVG Version: 6.00 Build 0)  -->
<svg version="1.1" id="Calque_1" xmlns="http://www.w3.org/2000/svg" xmlns:xlink="http://www.w3.org/1999/xlink" x="0px" y="0px"
	 viewBox="0 0 300 38" style="enable-background:new 0 0 300 38;" xml:space="preserve">
<style type="text/css">
	.st0{fill:#FFFFFF;}
</style>
<g>
	<g>
		<path class="st0" d="M44.7,9.5c1.1-2,2.7-3.6,4.7-4.7c2-1.1,4.2-1.7,6.7-1.7c2.9,0,5.4,0.7,7.6,2.2c2,1.3,3.4,3.2,4.3,5.4
			c0.1,0.3-0.1,0.7-0.5,0.7h-4.9c-0.2,0-0.4-0.1-0.4-0.3c-0.6-1.1-1.4-1.9-2.3-2.5c-1.1-0.6-2.3-0.9-3.7-0.9c-1.5,0-2.8,0.4-4,1.1
			c-1.2,0.7-2.1,1.7-2.7,3c-0.7,1.3-1,2.8-1,4.5c0,1.7,0.3,3.2,1,4.5c0.7,1.3,1.6,2.3,2.7,3c1.2,0.7,2.5,1.1,4,1.1
			c1.4,0,2.6-0.3,3.7-0.9c1-0.6,1.8-1.4,2.3-2.5c0.1-0.2,0.3-0.3,0.4-0.3h4.9c0.4,0,0.6,0.4,0.5,0.7c-0.9,2.3-2.3,4.1-4.3,5.5
			c-2.2,1.5-4.7,2.2-7.6,2.2c-2.5,0-4.7-0.6-6.7-1.7c-2-1.1-3.5-2.7-4.7-4.7c-1.1-2-1.7-4.3-1.7-6.8C42.9,13.7,43.5,11.5,44.7,9.5z"
			/>
		<path class="st0" d="M80.3,9.4c0.9-0.5,2-0.8,3.1-0.9c0.3,0,0.5,0.2,0.5,0.5v4.4c0,0.3-0.2,0.5-0.5,0.5h-0.9
			c-1.6,0-2.8,0.4-3.7,1.1c-0.8,0.8-1.2,2.1-1.2,4v9.7c0,0.3-0.2,0.5-0.5,0.5H73c-0.3,0-0.5-0.2-0.5-0.5V9.3c0-0.3,0.2-0.5,0.5-0.5
			h4.1c0.3,0,0.5,0.2,0.5,0.5v1.2c0,0.5,0.6,0.7,0.9,0.3C79,10.2,79.6,9.7,80.3,9.4z"/>
		<path class="st0" d="M106.6,9.5L94.4,38.5c-0.1,0.2-0.3,0.3-0.5,0.3h-4.4c-0.4,0-0.6-0.4-0.5-0.7l4-9.3c0.1-0.1,0.1-0.3,0-0.4
			l-7.8-19c-0.1-0.3,0.1-0.7,0.5-0.7h4.7c0.2,0,0.4,0.1,0.5,0.3l4.7,12.7c0.2,0.4,0.8,0.4,1,0l4.7-12.7c0.1-0.2,0.3-0.3,0.5-0.3h4.4
			C106.5,8.7,106.8,9.1,106.6,9.5z"/>
		<path class="st0" d="M117.6,9.4c1.2-0.6,2.5-0.9,4-0.9c1.7,0,3.3,0.4,4.7,1.3c1.4,0.9,2.5,2.1,3.4,3.7c0.8,1.6,1.2,3.4,1.2,5.5
			s-0.4,3.9-1.2,5.5c-0.8,1.6-1.9,2.9-3.4,3.7c-1.4,0.9-3,1.3-4.7,1.3c-1.5,0-2.8-0.3-4-0.9c-0.7-0.4-1.4-0.9-1.9-1.4
			c-0.3-0.3-0.8-0.1-0.8,0.4v10.8c0,0.3-0.2,0.5-0.5,0.5h-4.1c-0.3,0-0.5-0.2-0.5-0.5V9.3c0-0.3,0.2-0.5,0.5-0.5h4.1
			c0.3,0,0.5,0.2,0.5,0.5v1.1c0,0.4,0.5,0.7,0.8,0.4C116.2,10.2,116.9,9.7,117.6,9.4z M124.9,15.7c-0.5-0.9-1.2-1.6-2-2
			c-0.8-0.5-1.7-0.7-2.7-0.7c-0.9,0-1.8,0.2-2.6,0.7c-0.8,0.5-1.5,1.2-2,2.1c-0.5,0.9-0.8,2-0.8,3.2c0,1.2,0.3,2.3,0.8,3.2
			c0.5,0.9,1.2,1.6,2,2.1c0.8,0.5,1.7,0.7,2.6,0.7c1,0,1.8-0.2,2.7-0.7c0.8-0.5,1.5-1.2,2-2.1c0.5-0.9,0.8-2,0.8-3.2
			C125.7,17.7,125.4,16.6,124.9,15.7z"/>
		<path class="st0" d="M141.2,13c-0.3,0-0.5,0.2-0.5,0.5v9.4c0,0.7,0.2,1.2,0.5,1.5c0.3,0.3,0.9,0.5,1.7,0.5h1.9
			c0.3,0,0.5,0.2,0.5,0.5v3.3c0,0.3-0.2,0.5-0.5,0.5H142c-4.3,0-6.5-2.1-6.5-6.3v-9.3c0-0.3-0.2-0.5-0.5-0.5h-1.4
			c-0.3,0-0.5-0.2-0.5-0.5V9.3c0-0.3,0.2-0.5,0.5-0.5h1.4c0.3,0,0.5-0.2,0.5-0.5v-4c0-0.3,0.2-0.5,0.5-0.5h4.2
			c0.3,0,0.5,0.2,0.5,0.5v4c0,0.3,0.2,0.5,0.5,0.5h3.6c0.3,0,0.5,0.2,0.5,0.5v3.2c0,0.3-0.2,0.5-0.5,0.5H141.2z"/>
		<path class="st0" d="M152.8,28.2c-1.6-0.9-2.8-2.1-3.7-3.7c-0.9-1.6-1.3-3.4-1.3-5.5c0-2.1,0.5-3.9,1.4-5.5
			c0.9-1.6,2.2-2.8,3.8-3.7c1.6-0.9,3.4-1.3,5.3-1.3s3.7,0.4,5.3,1.3c1.6,0.9,2.9,2.1,3.8,3.7c0.9,1.6,1.4,3.4,1.4,5.5
			c0,2.1-0.5,3.9-1.4,5.5c-0.9,1.6-2.2,2.8-3.8,3.7c-1.6,0.9-3.4,1.3-5.4,1.3C156.1,29.5,154.3,29.1,152.8,28.2z M160.7,24.3
			c0.8-0.5,1.5-1.1,2-2c0.5-0.9,0.7-2,0.7-3.3c0-1.9-0.5-3.4-1.5-4.5c-1-1-2.3-1.6-3.7-1.6s-2.7,0.5-3.7,1.6c-1,1-1.5,2.5-1.5,4.5
			c0,1.9,0.5,3.4,1.5,4.5c1,1,2.2,1.6,3.7,1.6C159,25,159.9,24.8,160.7,24.3z"/>
		<path class="st0" d="M215.5,4.1l-6.9,24.7c-0.1,0.2-0.3,0.4-0.5,0.4h-5.3c-0.2,0-0.4-0.2-0.5-0.4l-4.3-16.1c-0.1-0.5-0.8-0.5-1,0
			l-4.4,16.1c-0.1,0.2-0.3,0.4-0.5,0.4l-5.3,0c-0.2,0-0.4-0.2-0.5-0.4l-6.7-24.8c-0.1-0.3,0.2-0.6,0.5-0.6h4.5
			c0.2,0,0.4,0.2,0.5,0.4l4,17.6c0.1,0.5,0.9,0.5,1,0l4.6-17.6c0.1-0.2,0.3-0.4,0.5-0.4h5c0.2,0,0.4,0.2,0.5,0.4l4.3,17.4
			c0.1,0.5,0.9,0.5,1,0l4-17.4c0.1-0.2,0.3-0.4,0.5-0.4h4.5C215.4,3.4,215.6,3.8,215.5,4.1z"/>
		<path class="st0" d="M219,13.4c0.8-1.6,1.9-2.8,3.4-3.7c1.4-0.9,3-1.3,4.7-1.3c1.5,0,2.9,0.3,4,0.9c0.7,0.4,1.4,0.8,1.9,1.4
			c0.3,0.3,0.8,0.1,0.8-0.4V9.3c0-0.3,0.2-0.5,0.5-0.5h4.2c0.3,0,0.5,0.2,0.5,0.5v19.4c0,0.3-0.2,0.5-0.5,0.5h-4.2
			c-0.3,0-0.5-0.2-0.5-0.5v-1.1c0-0.4-0.5-0.7-0.9-0.4c-0.5,0.5-1.2,1-1.9,1.4c-1.2,0.6-2.5,0.9-4,0.9c-1.7,0-3.3-0.4-4.7-1.3
			c-1.4-0.9-2.5-2.1-3.4-3.7c-0.8-1.6-1.2-3.5-1.2-5.5C217.7,16.8,218.1,15,219,13.4z M233.1,15.7c-0.5-0.9-1.2-1.6-2-2.1
			c-0.8-0.5-1.7-0.7-2.7-0.7c-1,0-1.8,0.2-2.7,0.7c-0.8,0.5-1.5,1.1-2,2c-0.5,0.9-0.8,2-0.8,3.2c0,1.2,0.3,2.3,0.8,3.2
			c0.5,0.9,1.2,1.6,2,2.1c0.8,0.5,1.7,0.7,2.6,0.7c1,0,1.9-0.2,2.7-0.7c0.8-0.5,1.5-1.2,2-2.1c0.5-0.9,0.7-2,0.7-3.2
			C233.8,17.7,233.5,16.6,233.1,15.7z"/>
		<path class="st0" d="M250.6,13c-0.3,0-0.5,0.2-0.5,0.5v9.4c0,0.7,0.2,1.2,0.5,1.5c0.3,0.3,0.9,0.5,1.7,0.5h1.9
			c0.3,0,0.5,0.2,0.5,0.5v3.3c0,0.3-0.2,0.5-0.5,0.5h-2.7c-4.4,0-6.5-2.1-6.5-6.3v-9.3c0-0.3-0.2-0.5-0.5-0.5h-1.4
			c-0.3,0-0.5-0.2-0.5-0.5V9.3c0-0.3,0.2-0.5,0.5-0.5h1.4c0.3,0,0.5-0.2,0.5-0.5v-4c0-0.3,0.2-0.5,0.5-0.5h4.2
			c0.3,0,0.5,0.2,0.5,0.5v4c0,0.3,0.2,0.5,0.5,0.5h3.6c0.3,0,0.5,0.2,0.5,0.5v3.2c0,0.3-0.2,0.5-0.5,0.5H250.6z"/>
		<path class="st0" d="M258.3,13.4c0.9-1.6,2.1-2.8,3.6-3.7c1.5-0.9,3.3-1.3,5.2-1.3c2.5,0,4.6,0.6,6.3,1.9c1.5,1.1,2.6,2.7,3.2,4.7
			c0.1,0.3-0.2,0.6-0.5,0.6h-4.5c-0.2,0-0.4-0.1-0.5-0.3c-0.3-0.7-0.8-1.3-1.4-1.8c-0.7-0.5-1.6-0.8-2.6-0.8c-1.5,0-2.6,0.5-3.5,1.6
			c-0.9,1.1-1.3,2.6-1.3,4.6c0,1.9,0.4,3.4,1.3,4.5c0.9,1.1,2,1.6,3.5,1.6c2,0,3.3-0.8,4-2.5c0.1-0.2,0.3-0.3,0.5-0.3h4.5
			c0.3,0,0.6,0.3,0.5,0.6c-0.6,1.9-1.7,3.4-3.2,4.6c-1.7,1.3-3.8,2-6.3,2c-2,0-3.7-0.4-5.2-1.3c-1.5-0.9-2.7-2.1-3.6-3.7
			c-0.9-1.6-1.3-3.4-1.3-5.5C257,16.8,257.4,15,258.3,13.4z"/>
		<path class="st0" d="M296.2,9.5c1.2,0.7,2.1,1.7,2.8,3c0.7,1.3,1,2.9,1,4.7v11.5c0,0.3-0.2,0.5-0.5,0.5h-4.1
			c-0.3,0-0.5-0.2-0.5-0.5V17.9c0-1.6-0.4-2.9-1.2-3.7c-0.8-0.9-1.9-1.3-3.3-1.3c-1.4,0-2.6,0.4-3.4,1.3c-0.8,0.9-1.2,2.1-1.2,3.7
			v10.8c0,0.3-0.2,0.5-0.5,0.5H281c-0.3,0-0.5-0.2-0.5-0.5V2.4c0-0.3,0.2-0.5,0.5-0.5h4.1c0.3,0,0.5,0.2,0.5,0.5V10
			c0,0.4,0.5,0.7,0.8,0.4c0.5-0.5,1.1-0.9,1.8-1.2c1.1-0.5,2.3-0.8,3.7-0.8C293.6,8.5,295,8.8,296.2,9.5z"/>
	</g>
	<g>
		<g>
			<g>
				<g>
					<path class="st0" d="M31.3,35.8c-1.3,0-2.5-0.5-3.4-1.4c-0.9-0.9-1.4-2.1-1.4-3.4c0-1.3,0.5-2.5,1.4-3.4
						c0.9-0.9,2.1-1.4,3.4-1.4c1.3,0,2.5,0.5,3.4,1.4c1.9,1.9,1.9,5,0,6.9C33.8,35.3,32.6,35.8,31.3,35.8z"/>
				</g>
				<g>
					<path class="st0" d="M4.9,9.9c-1.3,0-2.5-0.5-3.4-1.4C0.5,7.6,0,6.4,0,5.1c0-1.3,0.5-2.5,1.4-3.4c0.9-0.9,2.1-1.4,3.4-1.4
						c1.3,0,2.5,0.5,3.4,1.4c0.9,0.9,1.4,2.1,1.4,3.4c0,1.3-0.5,2.5-1.4,3.4C7.4,9.4,6.2,9.9,4.9,9.9z"/>
				</g>
				<path class="st0" d="M31,9.8c-1.3,0-2.5-0.5-3.4-1.4c-1.9-1.9-1.9-5,0-6.9c0.9-0.9,2.1-1.4,3.4-1.4c1.3,0,2.5,0.5,3.4,1.4
					c1.9,1.9,1.9,5,0,6.9C33.6,9.3,32.3,9.8,31,9.8z"/>
				<g>
					<path class="st0" d="M5,35.8c-1.3,0-2.5-0.5-3.4-1.4c-0.9-0.9-1.4-2.1-1.4-3.4c0-1.3,0.5-2.5,1.4-3.4C1.7,27.4,2,27.2,2.2,27
						c0.1-0.1,0.2-0.1,0.2-0.2c0.2-0.1,0.4-0.2,0.5-0.3c0.1,0,0.2-0.1,0.3-0.1c0.2-0.1,0.4-0.1,0.6-0.2c0,0,0.1,0,0.1,0
						c0,0,0,0,0.1,0l1.1-0.1c0.1,0,0.3,0,0.4,0l0.1,0c0,0,0.1,0,0.1,0l0,0l0,0h0c0.1,0,0.2,0,0.2,0c1.9,0,3.7-0.8,5-2.2
						c1.3-1.4,2.1-3.2,2-5.1l0-0.1l0-0.1c0-0.1,0-0.1,0-0.2c0-0.1,0-0.1,0-0.2l0-0.1c0-0.1,0-0.2,0-0.3l0.1-1.1c0,0,0-0.1,0-0.1
						l0-0.1c0-0.2,0.1-0.4,0.2-0.6c0-0.1,0.1-0.2,0.1-0.3c0.1-0.2,0.2-0.4,0.3-0.5c0-0.1,0.1-0.2,0.1-0.2c0.2-0.3,0.4-0.5,0.6-0.7
						c0.9-0.9,2.1-1.4,3.4-1.4c1.3,0,2.5,0.5,3.4,1.4c1.9,1.9,1.9,5,0,6.9c-0.2,0.2-0.4,0.4-0.7,0.6c-0.1,0.1-0.2,0.1-0.2,0.1
						c-0.2,0.1-0.4,0.2-0.5,0.3c-0.1,0-0.2,0.1-0.3,0.1c-0.2,0.1-0.4,0.1-0.6,0.2l-0.1,0c0,0-0.1,0-0.1,0l-1.1,0.1
						c-0.1,0-0.3,0-0.4,0l-0.1,0c0,0-0.1,0-0.1,0l0,0l-0.1,0h0c-0.1,0-0.2,0-0.2,0c-1.9,0-3.7,0.8-5,2.2c-1.3,1.4-2.1,3.2-2,5.1
						l0,0.1l0,0.1c0,0.1,0,0.1,0,0.2c0,0.1,0,0.1,0,0.2c0,0,0,0.1,0,0.2c0,0.1,0,0.1,0,0.2v0l-0.1,1c0,0,0,0.1,0,0.2
						c-0.1,0.2-0.1,0.4-0.2,0.6c0,0.1-0.1,0.2-0.1,0.3c-0.1,0.2-0.2,0.4-0.3,0.5c0,0.1-0.1,0.2-0.2,0.2c-0.2,0.3-0.4,0.5-0.6,0.7
						C7.5,35.3,6.3,35.8,5,35.8L5,35.8z"/>
				</g>
				<path class="st0" d="M18.1,35.8c-1.3,0-2.5-0.5-3.4-1.4c-0.9-0.9-1.4-2.1-1.4-3.4c0-1.3,0.5-2.5,1.4-3.4
					c0.2-0.2,0.4-0.4,0.7-0.6c0.1,0,0.1-0.1,0.2-0.1c0.2-0.1,0.3-0.2,0.5-0.3c0.1,0,0.2-0.1,0.3-0.1c0.2-0.1,0.4-0.1,0.6-0.2
					c0,0,0.2,0,0.2-0.1l1.1-0.1c0.1,0,0.3,0,0.4,0l0.1,0c0.1,0,0.1,0,0.1,0c0,0,0,0,0.1,0l0,0l0,0c0.1,0,0.2,0,0.2,0
					c1.9,0,3.7-0.8,5-2.2c1.3-1.4,2.1-3.2,2-5.1l0-0.2l0,0c0,0,0,0,0,0c0-0.1,0-0.1,0-0.2l0-0.2c0-0.1,0-0.2,0-0.3l0.1-1.1
					c0,0,0-0.2,0.1-0.2c0.1-0.3,0.1-0.4,0.2-0.6c0-0.1,0.1-0.2,0.1-0.3c0.1-0.2,0.2-0.3,0.3-0.5l0,0c0-0.1,0.1-0.1,0.1-0.2
					c0.2-0.3,0.4-0.5,0.6-0.7c0.9-0.9,2.1-1.4,3.4-1.4c1.3,0,2.5,0.5,3.4,1.4c1.9,1.9,1.9,5,0,6.9c-0.2,0.2-0.4,0.4-0.7,0.6
					c-0.1,0-0.1,0.1-0.2,0.1l-0.1,0.1c-0.2,0.1-0.3,0.2-0.5,0.3c-0.1,0-0.2,0.1-0.3,0.1c-0.2,0.1-0.4,0.1-0.6,0.2c0,0-0.1,0-0.1,0
					c0,0-0.1,0-0.1,0L31,22.8c-0.2,0-0.3,0-0.5-0.1c-0.1,0-0.1,0-0.1,0c0,0,0,0,0,0l-0.1,0c-0.1,0-0.2,0-0.2,0c-1.9,0-3.7,0.8-5,2.2
					c-1.3,1.4-2.1,3.2-2,5.1l0,0.1l0,0.1c0,0.1,0,0.1,0,0.2c0,0.1,0,0.1,0,0.2c0,0,0,0.1,0,0.2c0,0.1,0,0.2,0,0.2l-0.1,1.1
					c0,0,0,0.2,0,0.2c-0.1,0.2-0.1,0.4-0.2,0.6c0,0.1-0.1,0.2-0.1,0.3l0,0c-0.1,0.2-0.2,0.3-0.3,0.5c0,0.1-0.1,0.2-0.2,0.2
					c-0.2,0.3-0.4,0.5-0.6,0.7C20.6,35.3,19.4,35.8,18.1,35.8L18.1,35.8z"/>
				<path class="st0" d="M5,22.7c-1.3,0-2.5-0.5-3.4-1.4c-0.9-0.9-1.4-2.1-1.4-3.4c0-1.3,0.5-2.5,1.4-3.4c0.2-0.2,0.4-0.4,0.7-0.6
					c0.1,0,0.2-0.1,0.2-0.1c0.2-0.1,0.3-0.2,0.5-0.3c0.1,0,0.2-0.1,0.3-0.1c0.2-0.1,0.4-0.1,0.6-0.2l0.1,0c0,0,0,0,0.1,0L5.2,13
					c0.1,0,0.3,0,0.5,0l0,0c0.1,0,0.1,0,0.1,0c0,0,0,0,0,0l0,0l0,0c0.1,0,0.2,0,0.2,0c1.9,0,3.7-0.8,5-2.2c1.3-1.4,2.1-3.2,2-5.1
					l0-0.1l0-0.1c0-0.1,0-0.1,0-0.2c0,0,0-0.1,0-0.1l0-0.1c0-0.1,0-0.2,0-0.3l0.1-1l0,0v0c0,0,0-0.2,0-0.2c0.1-0.3,0.1-0.4,0.2-0.6
					c0-0.1,0.1-0.2,0.1-0.3c0.1-0.2,0.2-0.4,0.3-0.5l0,0c0-0.1,0.1-0.1,0.1-0.2c0.2-0.3,0.4-0.5,0.6-0.7C15.5,0.5,16.7,0,18,0
					c1.3,0,2.5,0.5,3.4,1.4c1.9,1.9,1.9,5,0,6.9c-0.2,0.2-0.4,0.4-0.7,0.6c-0.1,0.1-0.1,0.1-0.2,0.1l0,0c-0.2,0.1-0.4,0.2-0.5,0.3
					c-0.1,0-0.2,0.1-0.3,0.1c-0.2,0.1-0.4,0.1-0.6,0.2c0,0-0.1,0-0.1,0c0,0-0.1,0-0.1,0l-1.1,0.1c-0.1,0-0.3,0-0.4,0l-0.1,0
					c0,0-0.1,0-0.1,0c0,0,0,0-0.1,0l0,0l0,0c-0.1,0-0.2,0-0.2,0c-1.9,0-3.7,0.8-5,2.2c-1.3,1.4-2.1,3.2-2,5.1l0,0.1l0,0.1
					c0,0.1,0,0.1,0,0.2c0,0.1,0,0.1,0,0.2c0,0,0,0.1,0,0.2c0,0.1,0,0.2,0,0.2l-0.1,1.1c0,0,0,0.1,0,0.1l0,0.1
					c-0.1,0.2-0.1,0.4-0.2,0.6c0,0.1-0.1,0.2-0.1,0.3c-0.1,0.2-0.2,0.3-0.3,0.5C9.1,20.5,9,20.5,9,20.6c-0.2,0.3-0.4,0.5-0.6,0.7
					C7.5,22.2,6.3,22.7,5,22.7L5,22.7z"/>
			</g>
		</g>
	</g>
</g>
</svg>
